<svg width="37" height="37" viewBox="0 0 37 37" fill="none" xmlns="http://www.w3.org/2000/svg">
<path d="M26.1784 31.1011C24.6848 32.549 23.0541 32.3204 21.4843 31.6345C19.823 30.9334 18.2989 30.903 16.5462 31.6345C14.3515 32.5795 13.1932 32.3051 11.8825 31.1011C4.44499 23.4349 5.54233 11.7604 13.9858 11.3337C16.0433 11.4404 17.4759 12.4615 18.6799 12.553C20.4784 12.1872 22.2006 11.1356 24.1209 11.2727C26.4223 11.4556 28.1598 12.3701 29.3028 14.0161C24.5477 16.8661 25.6755 23.1301 30.0344 24.8828C29.1657 27.169 28.0378 29.4398 26.1632 31.1163L26.1784 31.1011ZM18.5275 11.2423C18.2989 7.84355 21.0575 5.03923 24.2276 4.76489C24.6696 8.69703 20.6613 11.6233 18.5275 11.2423Z" fill="white"/>
</svg>
