<svg width="756" height="720" viewBox="0 0 756 720" fill="none" xmlns="http://www.w3.org/2000/svg">
<g filter="url(#filter0_f_768_2612)">
<ellipse cx="179.764" cy="94.8408" rx="179.764" ry="94.8408" transform="matrix(1 0 0 -1 104 325.682)" fill="#F28037"/>
</g>
<g filter="url(#filter1_f_768_2612)">
<ellipse cx="176.044" cy="94.8408" rx="176.044" ry="94.8408" transform="matrix(1 0 0 -1 144.912 421.142)" fill="#F28037" fill-opacity="0.68"/>
</g>
<path d="M86.9115 144.679L71.8373 161.35L91.3251 172.546L70.8126 163.361L66.1865 185.354L68.5833 163.008L46.2364 165.404L68.2302 160.778L59.0451 140.266L70.2413 159.754L86.9115 144.679Z" fill="black"/>
<path d="M497.741 257.747C551.082 311.088 584.337 374.385 595.002 433.583C605.667 492.783 593.736 547.833 556.784 584.784C519.833 621.736 464.783 633.667 405.583 623.002C346.385 612.337 283.088 579.082 229.747 525.741C176.406 472.4 143.151 409.103 132.486 349.905C121.821 290.705 133.752 235.655 170.704 198.704C207.655 161.752 262.705 149.821 321.905 160.486C381.103 171.151 444.4 204.406 497.741 257.747Z" stroke="black"/>
<path d="M529.741 225.747C583.082 279.088 616.337 342.385 627.002 401.583C637.667 460.783 625.736 515.833 588.784 552.784C551.833 589.736 496.783 601.667 437.583 591.002C378.385 580.337 315.088 547.082 261.747 493.741C208.406 440.4 175.151 377.103 164.486 317.905C153.821 258.705 165.752 203.655 202.704 166.704C239.655 129.752 294.705 117.821 353.905 128.486C413.103 139.151 476.4 172.406 529.741 225.747Z" stroke="black"/>
<path d="M561.741 193.747C615.082 247.088 648.337 310.385 659.002 369.583C669.667 428.783 657.736 483.833 620.784 520.784C583.833 557.736 528.783 569.667 469.583 559.002C410.385 548.337 347.088 515.082 293.747 461.741C240.406 408.4 207.151 345.103 196.486 285.905C185.821 226.705 197.752 171.655 234.704 134.704C271.655 97.7523 326.705 85.8211 385.905 96.486C445.103 107.151 508.4 140.406 561.741 193.747Z" stroke="black"/>
<defs>
<filter id="filter0_f_768_2612" x="0.845436" y="32.8454" width="565.836" height="395.991" filterUnits="userSpaceOnUse" color-interpolation-filters="sRGB">
<feFlood flood-opacity="0" result="BackgroundImageFix"/>
<feBlend mode="normal" in="SourceGraphic" in2="BackgroundImageFix" result="shape"/>
<feGaussianBlur stdDeviation="51.5773" result="effect1_foregroundBlur_768_2612"/>
</filter>
<filter id="filter1_f_768_2612" x="41.7571" y="128.306" width="558.398" height="395.991" filterUnits="userSpaceOnUse" color-interpolation-filters="sRGB">
<feFlood flood-opacity="0" result="BackgroundImageFix"/>
<feBlend mode="normal" in="SourceGraphic" in2="BackgroundImageFix" result="shape"/>
<feGaussianBlur stdDeviation="51.5773" result="effect1_foregroundBlur_768_2612"/>
</filter>
</defs>
</svg>
