<svg width="803" height="720" viewBox="0 0 803 720" fill="none" xmlns="http://www.w3.org/2000/svg">
<path d="M771 77.2207L772.505 107.15L801.434 99.3322L773.435 110.012L789.809 135.109L771 111.781L752.191 135.109L768.565 110.012L740.566 99.3322L769.495 107.15L771 77.2207Z" fill="black"/>
<path d="M50.9115 664.191L35.8373 680.861L55.3251 692.058L34.8126 682.873L30.1865 704.866L32.5833 682.519L10.2364 684.916L32.2302 680.29L23.0451 659.778L34.2413 679.265L50.9115 664.191Z" fill="black"/>
<g filter="url(#filter0_f_2226_6419)">
<ellipse cx="306.574" cy="482.563" rx="149.574" ry="78.9132" fill="#F28037"/>
</g>
<g filter="url(#filter1_f_2226_6419)">
<ellipse cx="337.52" cy="403.134" rx="146.479" ry="78.9132" fill="#F28037" fill-opacity="0.68"/>
</g>
<path d="M525.74 257.747C579.081 311.088 612.337 374.385 623.001 433.583C633.666 492.783 621.735 547.833 584.784 584.784C547.832 621.736 492.782 633.667 433.582 623.002C374.384 612.337 311.088 579.082 257.747 525.741C204.406 472.4 171.15 409.103 160.486 349.905C149.821 290.705 161.752 235.655 198.703 198.704C235.655 161.752 290.705 149.821 349.905 160.486C409.103 171.151 472.399 204.406 525.74 257.747Z" stroke="black"/>
<path d="M557.74 225.747C611.081 279.088 644.337 342.385 655.001 401.583C665.666 460.783 653.735 515.833 616.784 552.784C579.832 589.736 524.782 601.667 465.582 591.002C406.384 580.337 343.088 547.082 289.747 493.741C236.406 440.4 203.15 377.103 192.486 317.905C181.821 258.705 193.752 203.655 230.703 166.704C267.655 129.752 322.705 117.821 381.905 128.486C441.103 139.151 504.399 172.406 557.74 225.747Z" stroke="black"/>
<path d="M589.74 193.747C643.081 247.088 676.337 310.385 687.001 369.583C697.666 428.783 685.735 483.833 648.784 520.784C611.832 557.736 556.782 569.667 497.582 559.002C438.384 548.337 375.088 515.082 321.747 461.741C268.406 408.4 235.15 345.103 224.486 285.905C213.821 226.705 225.752 171.655 262.703 134.704C299.655 97.7523 354.705 85.8211 413.905 96.486C473.103 107.151 536.399 140.406 589.74 193.747Z" stroke="black"/>
<defs>
<filter id="filter0_f_2226_6419" x="53.8449" y="300.495" width="505.458" height="364.136" filterUnits="userSpaceOnUse" color-interpolation-filters="sRGB">
<feFlood flood-opacity="0" result="BackgroundImageFix"/>
<feBlend mode="normal" in="SourceGraphic" in2="BackgroundImageFix" result="shape"/>
<feGaussianBlur stdDeviation="51.5773" result="effect1_foregroundBlur_2226_6419"/>
</filter>
<filter id="filter1_f_2226_6419" x="87.886" y="221.066" width="499.268" height="364.136" filterUnits="userSpaceOnUse" color-interpolation-filters="sRGB">
<feFlood flood-opacity="0" result="BackgroundImageFix"/>
<feBlend mode="normal" in="SourceGraphic" in2="BackgroundImageFix" result="shape"/>
<feGaussianBlur stdDeviation="51.5773" result="effect1_foregroundBlur_2226_6419"/>
</filter>
</defs>
</svg>
