<svg width="163" height="105" viewBox="0 0 163 105" fill="none" xmlns="http://www.w3.org/2000/svg">
<path d="M72.2802 56.7461L102.5 27.6642L106.727 36.2478L79.1928 63.6834L72.2802 56.7461Z" fill="url(#paint0_linear_2208_4185)"/>
<path d="M91.9696 58.8415L109.5 42.6641L114.35 51.2042L100.5 65.6641L91.9696 58.8415Z" fill="url(#paint1_linear_2208_4185)"/>
<path d="M63.5 0.164126H108.5V9.66413H63.5V0.164126Z" fill="url(#paint2_linear_2208_4185)"/>
<path d="M49 13.6641L63 0.164171L71 6.16413L54 23.1642L49 13.6641Z" fill="url(#paint3_linear_2208_4185)"/>
<path d="M57.0282 27.9819L83.1849 2.01762L91.8067 6.99811L59.765 39.4036L57.0282 27.9819Z" fill="url(#paint4_linear_2208_4185)"/>
<path d="M84.5033 23.7883L104.222 0.280689L120.755 0L90.8953 30.1242L84.5033 23.7883Z" fill="url(#paint5_linear_2208_4185)"/>
<path d="M99.6253 5.38895L120.401 0.382425L56.5 65.6641H42L99.6253 5.38895Z" fill="url(#paint6_linear_2208_4185)"/>
<path d="M56.5 55.6641H100.5V65.6641H56.5L56.5 55.6641Z" fill="url(#paint7_linear_2208_4185)"/>
<path d="M0.78125 96V93.3267L9.09424 81.5103H4.61426L4.29688 83.7686H1.08643L1.31836 78.2266H14.4775V80.8022L6.14014 92.7285H11.4746L11.8164 90.6167H15.0146L14.6606 96H0.78125ZM19.6738 96V93.4976L21.5171 93.1069V81.1318L19.6738 80.7412V78.2266H27.6328V80.7412L25.7896 81.1318V93.1069L27.6328 93.4976V96H19.6738ZM32.9023 96V93.3267L41.2153 81.5103H36.7354L36.418 83.7686H33.2075L33.4395 78.2266H46.5986V80.8022L38.2612 92.7285H43.5957L43.9375 90.6167H47.1357L46.7817 96H32.9023ZM51.7949 96V93.4976L53.6382 93.1069V81.1318L51.7949 80.7412V78.2266H59.7539V80.7412L57.9106 81.1318V93.1069L59.7539 93.4976V96H51.7949ZM73.4585 96.2563C71.7658 96.2563 70.2562 95.9146 68.9297 95.231C67.6032 94.5474 66.5615 93.5586 65.8047 92.2646C65.0479 90.9626 64.6694 89.3838 64.6694 87.5283V86.7104C64.6694 85.0015 65.0153 83.4919 65.707 82.1816C66.4069 80.8633 67.3997 79.8338 68.6855 79.0933C69.9795 78.3446 71.5135 77.9702 73.2876 77.9702C74.5246 77.9702 75.7005 78.137 76.8154 78.4707C77.9385 78.7962 78.9801 79.3577 79.9404 80.1553V84.7329H76.8276L76.4004 82.1084C76.1237 81.9212 75.8307 81.7585 75.5215 81.6201C75.2204 81.4818 74.8949 81.376 74.5449 81.3027C74.2031 81.2295 73.8328 81.1929 73.4341 81.1929C72.5308 81.1929 71.7414 81.4085 71.0659 81.8398C70.3905 82.2712 69.8656 82.8978 69.4912 83.7197C69.125 84.5335 68.9419 85.5223 68.9419 86.686V87.5283C68.9419 88.6188 69.1331 89.5791 69.5156 90.4092C69.8981 91.2311 70.4312 91.874 71.1147 92.3379C71.8065 92.8018 72.604 93.0337 73.5073 93.0337C73.9875 93.0337 74.4757 92.9849 74.9722 92.8872C75.4686 92.7814 75.9487 92.6431 76.4126 92.4722L76.8398 89.9575H79.9648V94.4375C79.2568 94.9258 78.3535 95.353 77.2549 95.7192C76.1562 96.0773 74.8908 96.2563 73.4585 96.2563ZM85.0879 96V93.4976L86.9312 93.1069V81.1318L85.0879 80.7412V78.2266H93.0591V80.7412L91.2158 81.1318V85.624H97.6855V81.1318L95.8423 80.7412V78.2266H97.6855H101.958H103.801V80.7412L101.958 81.1318V93.1069L103.801 93.4976V96H95.8423V93.4976L97.6855 93.1069V88.9077H91.2158V93.1069L93.0591 93.4976V96H85.0879ZM106.678 96V93.4976L107.923 93.3145L113.221 78.2266H117.86L123.17 93.3145L124.415 93.4976V96H117.774V93.4976L118.934 93.2778L118.397 91.3491H112.684L112.171 93.2778L113.331 93.4976V96H106.678ZM113.587 88.3462H117.481L115.748 82.9629L115.553 82.3403H115.479L115.272 83.0239L113.587 88.3462ZM129.196 96V93.4976L131.04 93.1069V81.1318L129.196 80.7412V78.2266H137.155V80.7412L135.312 81.1318V93.1069L137.155 93.4976V96H129.196ZM142.12 96V93.4976L143.951 93.1069V81.1318L142.12 80.7412V78.2266H143.951H148.309L155.438 89.6035H155.511V81.1318L153.179 80.7412V78.2266H159.307H161.15V80.7412L159.307 81.1318V96H155.083L147.82 84.8672H147.747V93.1069L150.091 93.4976V96H142.12Z" fill="url(#paint8_linear_2208_4185)"/>
<defs>
<linearGradient id="paint0_linear_2208_4185" x1="81.3777" y1="0" x2="81.3777" y2="65.6641" gradientUnits="userSpaceOnUse">
<stop stop-color="#F28037"/>
<stop offset="1" stop-color="#D73C0E"/>
</linearGradient>
<linearGradient id="paint1_linear_2208_4185" x1="81.3777" y1="0" x2="81.3777" y2="65.6641" gradientUnits="userSpaceOnUse">
<stop stop-color="#F28037"/>
<stop offset="1" stop-color="#D73C0E"/>
</linearGradient>
<linearGradient id="paint2_linear_2208_4185" x1="81.3777" y1="0" x2="81.3777" y2="65.6641" gradientUnits="userSpaceOnUse">
<stop stop-color="#F28037"/>
<stop offset="1" stop-color="#D73C0E"/>
</linearGradient>
<linearGradient id="paint3_linear_2208_4185" x1="81.3777" y1="0" x2="81.3777" y2="65.6641" gradientUnits="userSpaceOnUse">
<stop stop-color="#F28037"/>
<stop offset="1" stop-color="#D73C0E"/>
</linearGradient>
<linearGradient id="paint4_linear_2208_4185" x1="81.3777" y1="0" x2="81.3777" y2="65.6641" gradientUnits="userSpaceOnUse">
<stop stop-color="#F28037"/>
<stop offset="1" stop-color="#D73C0E"/>
</linearGradient>
<linearGradient id="paint5_linear_2208_4185" x1="81.3777" y1="0" x2="81.3777" y2="65.6641" gradientUnits="userSpaceOnUse">
<stop stop-color="#F28037"/>
<stop offset="1" stop-color="#D73C0E"/>
</linearGradient>
<linearGradient id="paint6_linear_2208_4185" x1="81.3777" y1="0" x2="81.3777" y2="65.6641" gradientUnits="userSpaceOnUse">
<stop stop-color="#F28037"/>
<stop offset="1" stop-color="#D73C0E"/>
</linearGradient>
<linearGradient id="paint7_linear_2208_4185" x1="81.3777" y1="0" x2="81.3777" y2="65.6641" gradientUnits="userSpaceOnUse">
<stop stop-color="#F28037"/>
<stop offset="1" stop-color="#D73C0E"/>
</linearGradient>
<linearGradient id="paint8_linear_2208_4185" x1="81.5" y1="67" x2="81.5" y2="105" gradientUnits="userSpaceOnUse">
<stop stop-color="#D94111"/>
<stop offset="0.550586" stop-color="#FB923C"/>
<stop offset="1" stop-color="#D83E10"/>
</linearGradient>
</defs>
</svg>
