<svg width="24" height="26" viewBox="0 0 24 26" fill="none" xmlns="http://www.w3.org/2000/svg">
<g clip-path="url(#clip0_975_6881)">
<path d="M17.6512 16.9527C20.657 15.3023 22.9356 14.0447 23.132 13.947C23.7603 13.6129 24.4091 12.7285 23.132 12.0416C22.7196 11.8256 20.4996 10.6072 17.6512 9.03589L13.7026 13.0237L17.6512 16.9526V16.9527Z" fill="#FFD900"/>
<path d="M13.7027 13.0237L1.12988 25.6952C1.425 25.7342 1.75817 25.656 2.15097 25.4401C2.97565 24.9886 11.7181 20.2143 17.6513 16.9537L13.7027 13.0237Z" fill="#F43249"/>
<path d="M13.7027 13.0237L17.6513 9.05556C17.6513 9.05556 3.03529 1.07901 2.15098 0.608144C1.81781 0.410816 1.44445 0.352201 1.11035 0.410816L13.7027 13.0237Z" fill="#00EE76"/>
<path d="M13.7027 13.0238L1.11041 0.410889C0.599361 0.529045 0.16748 0.980556 0.16748 1.90395V24.2022C0.16748 25.0473 0.501669 25.6561 1.12995 25.7148L13.7027 13.0238Z" fill="#00D3FF"/>
</g>
<defs>
<clipPath id="clip0_975_6881">
<rect width="23.7053" height="25.3721" fill="white" transform="translate(0.16748 0.38916)"/>
</clipPath>
</defs>
</svg>
